<svg xmlns="http://www.w3.org/2000/svg" width="79.721" height="99.918" viewBox="0 0 79.721 99.918"><g transform="translate(-7.964 -1166.352)"><path d="M22.759,1178.459l.072.357C22.887,1178.766,22.887,1178.661,22.759,1178.459Z" fill="#fff"/><path d="M26.221,1191.827l-.011-.014c-.03-.011-.056-.032-.084-.041Z" fill="#fff"/><path d="M48.76,1209.451h0l.268-.052Z" fill="#fff"/><path d="M86.51,1260.112l.16-.006c-1.039-1.851-1.8-2.936-3.206-3.672.5-.677-.994-1.412-1.09-1.96l.08,0c-1.277-.629-1.215-2.4-2.412-3.029.08,0,.271-.117.456.1-.633-.647-1.53-1.507-1.2-1.848-1.418-1.619-3.09-4.117-4.527-4.741l.161-.006c-.881-.307-.684-.754-1.425-1.288.019-.075.005-.144.032-.152-.919-.366-1.594-1.918-2.187-2.332l.218-.227-1.1-1.3.338.543c-.812.353-.367-1.346-1.563-1.977-.625-.977-2.845-.752-3.251-1.956-.669-.2.823,0,.054-.488.336-.3.467.143.613-.25-.683-.532-.486-1.367-1.361-2l.249-.247c-1.332-.674-1.205-2.291-2.237-2.627-1.083-.922.241-1.372-1.188-2.1l.025-.734c-.321-.536-.728.005-.971-.678.259-.15-.348-.832.121-.687-.591-1.514-2.463-2.088-3.1-4.189-.729,0-1.093-1.022-1.64-1.017.165-.2-1.24-1.657-.1-1.079.1.052.2.2.113.247l.355-.1c-.209-1.319-1.587-1.457-2.22-2.432.122.341.426.682.053.586l-.625-.876h.365l-.852-1.368-.146.394c-.337-.731-.028-1.322-.971-1.708-.469-.142.077.882-.52.3a28.867,28.867,0,0,0-1.867-3.561c-.24.346-.45.052-.742-.189l.249-.248c-1.255-.823.284-.882-.886-1.757l-.535.1c-1.327-.578.148-.986-1.464-1.52.39.4-.444.68-.748.044l.373-.069c-.29-.257-.479-.27-.58-.513.283.067.46-.206.07-.612l.563.037-1.138-.454c-.218-.866-1.371-1.608-1.2-2.165,0,0-.9-1.527-1.554-1.525.472.079-.026-.76.442-.775-.568-.135-1.63-1.011-1.653-1.674l.1.053c-.91-1.814-2.522-2.349-3.239-4.054-.269.313-.675-.567-.939-.065-1.539-1.143-1.242-3.3-2.913-2.846-.584-.61-.316-1.016-.519-1.409l.19.106a22.15,22.15,0,0,1-2.054-2.458c-.482-.364-1.124.02-1.626-.916.441.086.135-.218-.106-.527.191.169.324.163.164-.364a.737.737,0,0,1-.331-.108c.016-.018.018-.045.049-.056-.484-.451-.486-.3-.332-.041-.045.016-.074.072-.082.2-.116-.769-1.182-1.474-.832-1.851-1.3-1.477-2.577-2.262-3.736-3.43.092-.306.51-.146.881.166l-.788-.856c.3-.223.58.393.858.628-.37-1.462-2.227-1.872-2.783-3.491l-.441-.083-.02-.106c-.121.1-.513-.055-.7-.213.117-.381.6-.45.1-1.07-.141-.694-1.232-1.323-1.881-1.869.232.386,0,.384-.209.3-.255-.31-.14-.692-.441-.85l.325-.3c-.231.38-1-.55-1.231-.555.118-.381.6.317.86.244-1.021-1.242-.51-.621-1.53-1.863-.789-.472-.233.38-.791.294-.533-.544-1.229-.937-1.554-1.786l-.14.457a4.927,4.927,0,0,1-1.877-2.632c-9.029-6.4-4.809.918-4.809.918,1.881,3.821,4.1,4.818,7.4,8.546,2.528,3.563,2.64,4.943,5.664,8.321,1.278,1.739,2.831,3.447,4.2,5.054,1.082.426,1.709,2.179,2.829,2.808l.018.568a1.682,1.682,0,0,1,.879.96l-.093.04c.575.325.878.96,1.165,1.121l-.093.04.489.558-.188-.015a8.517,8.517,0,0,1,2.051,2.363l.271-.313c.911,1.908,2.039,1.985,2.76,3.787l-.093.04c2.293,1.2,1.713,3.386,4.008,4.675-.286-.161-.085.231-.178.272.779.81,1.561,1.715,2.2,1.238.492.649.211.677.033.95.273-.219.823.25,1.231.738l-.287-.147,1.215,1.364.3-.688c.445.879-.484.689.212,1.32l.424-.345c.737,1.121.565,2.249,1.043,3.517,3.122,4.387,7.776,8.087,10.093,12.627l-.188.427c-.415.445,1.549.542,1.229,1.034l.574.291c.016.2.137.537-.147.392.312.439.4.388.779.583l.061.685c1.077,1.853,2.756,2.834,4.014,4.687,1.05,2.585,4.709,6.141,6.821,8.187,3.223,2.676,4.265,7.9,7.65,10.574.017.16.385.321.437.276l2.291,3.077S91.272,1274.312,86.51,1260.112Z" fill="#fff"/></g></svg>