<svg xmlns="http://www.w3.org/2000/svg" width="776.109" height="431.823" viewBox="0 0 776.109 431.823"><g transform="matrix(1, -0.017, 0.017, 1, -1411.402, -515.454)"><path d="M1418.57,702.68c1.1-3.581,2.288-7.005,3.483-10.392,1.242-3.521,1.552-7.386,2.9-10.7,1.4-3.444,3.092-6.665,4.6-9.9,1.565-3.354,3.128-6.64,4.806-9.772,1.737-3.241,4.145-5.913,6-8.925,1.912-3.1,2.768-7.014,4.8-9.886,2.09-2.951,4.612-5.5,6.827-8.212,2.264-2.776,4.789-5.244,7.179-7.785,2.428-2.583,5.235-4.639,7.788-6.991,2.582-2.376,5.493-4.17,8.2-6.322,2.719-2.163,4.486-5.906,7.323-7.853s6.579-2.166,9.531-3.91,5.338-4.7,8.382-6.246c3.023-1.535,6.431-2.13,9.554-3.489,3.091-1.345,5.805-3.974,8.988-5.157,3.146-1.169,6.51-1.773,9.743-2.8,3.188-1.011,6.652-.978,9.92-1.855,3.221-.865,6.261-2.787,9.555-3.533,3.248-.734,6.795.155,10.109-.474,3.266-.621,6.474-1.738,9.8-2.265,3.283-.521,6.534-1.5,9.872-1.936,3.292-.432,6.675-.157,10.016-.517,3.3-.355,6.587-1.2,9.935-1.494,3.309-.29,6.664-.106,10.013-.343,3.317-.236,6.595-1.6,9.947-1.789,3.32-.19,6.739,1.635,10.091,1.48,3.7-.169,7.009-1.666,10.085-1.784,3.77-.145,7.127.282,10.155.213,3.814-.085,7.128-1.418,10.145-1.381,3.686.048,6.929,1.068,10.129,1.3,3.277.237,6.546.142,10.135.575,3.016.363,6.269,1.007,10.045,1.507,3,.4,6.206,1.8,9.959,2.282,3.046.393,6.4.707,10.085,1.157,3.1.377,6.568-.495,10.2-.077,3.14.36,6.411,1.644,10.005,2.036,3.169.345,6.491,1.152,10.052,1.521,3.2.331,6.676-.744,10.216-.394,3.218.319,6.507,1.587,10.028,1.922,3.237.307,6.594.8,10.1,1.115,3.378.309,6.677.166,9.861.306,3.377.15,6.652-.114,9.858-.137,3.355-.024,6.677,1.094,9.9.9,3.32-.2,6.469-2.164,9.709-2.528,3.276-.367,6.475-.98,9.729-1.494,3.227-.507,6.658.362,9.927-.27,3.185-.614,6.275-2.067,9.557-2.78,3.152-.683,6.558-.343,9.852-1.1,3.131-.72,6.409-1.1,9.712-1.871,3.122-.729,6.254-1.873,9.566-2.635,3.118-.719,6-3.236,9.318-3.975,3.123-.695,6.435-.908,9.761-1.611,3.129-.661,6.572-.014,9.9-.674,3.139-.625,6.357-1.292,9.693-1.91,3.148-.584,6.22-2.309,9.558-2.883,3.16-.543,6.5-.432,9.84-.961,3.171-.5,6.449-.768,9.8-1.256s6.741-.495,10.191-.783c3.365-.28,6.735-.613,10.188-.705,3.38-.09,6.807-1.9,10.255-1.809,3.385.091,6.827.534,10.262.8,3.381.263,6.718,1.582,10.135,2.018,3.372.432,6.623,1.859,10.013,2.458,3.357.594,6.936-.14,10.3.62,3.332.754,6.449,2.627,9.775,3.545,3.3.913,6.97.42,10.254,1.5,3.269,1.07,6.162,3.515,9.4,4.749s6.49,2.316,9.672,3.709,6.667,1.983,9.786,3.535,6.235,3.178,9.283,4.894,5.364,4.931,8.33,6.81,5.707,4.078,8.581,6.124,5.671,4.119,8.442,6.333,5.561,4.315,8.217,6.7,6.045,3.8,8.572,6.353,5.378,4.795,7.76,7.517,4.3,5.967,6.518,8.854,4.2,6,6.246,9.043c2.038,3.028,4.64,5.686,6.5,8.883,1.846,3.168,3.307,6.681,4.97,10.016,1.643,3.3,3.073,6.787,4.525,10.248,1.432,3.412,1.948,7.283,3.183,10.854,1.245,3.6,3.735,6.625,4.9,10.144,1.194,3.624.605,7.889,1.708,11.431,1.136,3.648,3.744,6.684,4.778,10.246,1.068,3.677.54,7.831,1.5,11.419.987,3.7,2.236,7.234,3.1,10.847.893,3.735,3.125,7.036,3.882,10.677.785,3.767.284,7.776.921,11.445.658,3.8.633,7.62,1.126,11.315.51,3.822,2.39,7.375,2.717,11.093.34,3.844-.5,7.708-.358,11.447.143,3.852.025,7.6-.052,11.344-.078,3.847.666,7.672.347,11.411-.324,3.818-.6,7.628-1.179,11.341-.59,3.764-2.476,7.166-3.34,10.827-.867,3.678-.7,7.683-1.847,11.262-1.146,3.564-2.442,7.111-3.878,10.584-1.416,3.421-3.969,6.212-5.671,9.552-1.665,3.262-2.772,6.925-4.722,10.115-1.887,3.091-4.145,5.945-6.308,8.975-2.084,2.92-4.789,5.29-7.134,8.157-2.253,2.755-3.157,7.07-5.657,9.779-2.4,2.6-5.591,4.409-8.219,6.969-2.519,2.451-4.746,5.452-7.482,7.87-2.653,2.347-6.341,3.054-8.987,5.182-2.745,2.209-4.363,6.119-7.1,8.1-2.837,2.053-6.394,2.721-9.225,4.544-2.926,1.883-6.03,3.206-8.95,4.854-3.009,1.7-5.745,3.844-8.75,5.305-3.088,1.5-6.08,3.124-9.165,4.39-3.152,1.294-6.593,1.427-9.747,2.49-3.209,1.082-6.367,2.031-9.578,2.891-3.254.872-6.389,2.033-9.646,2.693-3.285.666-6.606.674-9.9,1.142-3.306.469-6.492,1.83-9.806,2.116s-6.633.4-9.961.526-6.635-.034-9.967-.058-6.644.27-9.976.116c-3.313-.152-6.578-1.217-9.907-1.48-3.306-.26-6.687.457-10.012.106-3.3-.348-6.627-.551-9.945-.975-3.291-.42-6.646-.456-9.958-.934-3.286-.473-6.512-1.591-9.819-2.106-3.281-.509-6.658-.4-9.963-.934-3.278-.531-6.553-1.19-9.856-1.729-3.277-.536-6.553-1.167-9.858-1.7-3.278-.527-6.452-1.983-9.758-2.492-3.281-.505-6.638-.507-9.948-.98-3.288-.469-6.651-.319-9.966-.744-3.292-.42-6.46-2.277-9.783-2.641-3.3-.36-6.752,1.07-10.081.778-3.3-.288-6.547-1.649-9.884-1.857-3.306-.206-6.618-.893-9.959-1.007-3.309-.114-6.655.509-10,.5-3.309-.012-6.624.481-9.969.58-3.307.1-6.641-.191-9.984.026-3.3.215-6.524,1.592-9.861,1.936-3.289.336-6.775-1.12-10.1-.649-3.274.464-6.6.969-9.907,1.574-3.35.611-6.57,1.9-9.862,2.494-3.352.606-6.678,1.174-9.969,1.76-3.354.6-6.7.993-10,1.57-3.358.589-6.678,1.217-9.973,1.784-3.361.579-6.662,1.336-9.959,1.891-3.364.565-6.786.425-10.081.964-3.367.55-6.739.744-10.036,1.265-3.369.534-6.683,1.161-9.981,1.661-3.372.514-6.449,3.154-9.747,3.632-3.375.488-6.762.567-10.062,1.017-3.38.463-6.906-.835-10.207-.415-3.384.432-6.7,1.022-10.007,1.408-3.391.4-6.7,1.108-10.009,1.453-3.4.355-6.644,2.019-9.953,2.32-3.4.309-6.882-1.333-10.195-1.086-3.4.256-6.686,1.772-10,1.959-3.407.195-6.744,1.279-10.058,1.4-3.412.125-6.815-1.372-10.128-1.328-3.415.046-6.783,1.268-10.1,1.225-3.413-.043-6.759-1.188-10.068-1.33-3.415-.145-6.76-.457-10.066-.712-3.407-.261-6.719-.893-10.016-1.273-3.4-.391-6.647-1.345-9.928-1.867-3.375-.538-6.99.886-10.25.2-3.348-.7-6.489-2.352-9.718-3.211-3.309-.879-6.452-2.234-9.64-3.286-3.255-1.072-6.5-2.024-9.631-3.282-3.184-1.277-6.612-1.85-9.678-3.325-3.1-1.492-5.435-4.7-8.418-6.4s-6.057-3.141-8.941-5.064-5.785-3.716-8.556-5.856c-2.742-2.12-5.862-3.711-8.508-6.056-2.6-2.308-5.361-4.516-7.877-7.049-2.578-2.595-4.994-5.332-7.368-7.988-2.448-2.74-4.771-5.568-7.007-8.374-2.3-2.885-4.38-5.938-6.46-8.895-2.135-3.033-4.307-6.007-6.213-9.113-1.948-3.173-2.622-7.172-4.334-10.422-1.741-3.306-4.191-6.118-5.693-9.5-1.52-3.426-2.746-6.974-4.027-10.484-1.288-3.53-2.8-6.964-3.849-10.579s-2.49-7.148-3.306-10.847c-.811-3.678.261-7.794-.323-11.557-.579-3.721-2.624-7.22-2.986-11.027-.355-3.748.042-7.6-.108-11.434-.146-3.76-.564-7.558-.515-11.4.047-3.759-.436-7.616-.2-11.452.228-3.746,1.987-7.389,2.387-11.207.391-3.73-.517-7.712.035-11.511.538-3.706,2.906-7.085,3.595-10.857.672-3.678-.381-7.83.432-11.573.793-3.649,3.372-6.831,4.3-10.542.9-3.619,1.546-7.345,2.571-11.023C1416.336,709.9,1417.455,706.325,1418.57,702.68Z" transform="translate(0 0)" fill="#ffe8b8"/></g></svg>