<svg xmlns="http://www.w3.org/2000/svg" width="764.52" height="463.786" viewBox="0 0 764.52 463.786"><g transform="translate(-1330.038 -257.31)"><path d="M1370.387,368.7c1.646-3.445,5.438-5.511,7.277-8.759,1.869-3.3,3.8-6.373,5.853-9.478,2.081-3.14,1.62-8.363,3.883-11.306,2.279-2.967,5.5-5.124,7.955-7.9s5.265-5.221,7.887-7.815,5.557-4.811,8.332-7.222,6.123-3.925,9.031-6.153,4.723-6.179,7.746-8.227c3.007-2.038,6.094-4.07,9.214-5.943,3.1-1.865,6.128-4.054,9.331-5.76,3.183-1.7,7.007-2.036,10.278-3.583,3.253-1.537,6.333-3.608,9.663-5,3.312-1.389,7.157-1.235,10.533-2.486s6.223-4.208,9.639-5.324,6.945-1.84,10.393-2.828,6.761-2.652,10.234-3.519,7.013-1.58,10.506-2.334,7.324.368,10.833-.276,6.764-3.22,10.284-3.763c3.537-.544,7.309.837,10.838.393,3.553-.447,7.076-.987,10.608-1.336,3.567-.354,7.1-.912,10.637-1.171,3.579-.263,7.131-.621,10.666-.794,3.588-.174,7.194,1.615,10.724,1.528,3.6-.087,7.126-2.338,10.652-2.341,3.6,0,7.165.642,10.681.72,3.614.08,7.193-.29,10.7-.129,3.624.167,7.152,1.043,10.642,1.287,3.631.255,7.256-.434,10.723-.1,3.64.345,7.165,1.061,10.6,1.479,3.663.447,7.1,1.851,10.542,2.327,3.661.508,7.313.126,10.739.661,3.658.574,6.968,2.645,10.376,3.248,3.656.647,7.643-1.567,11.035-.893,3.651.726,6.884,3.068,10.256,3.819,3.64.809,6.889,2.762,10.242,3.59,3.624.895,7.46.127,10.794,1.033,3.6.979,6.717,3.323,10.038,4.3,3.576,1.048,7.005,2.055,10.328,3.083,3.541,1.094,7.285.952,10.627,2,3.5,1.1,6.579,3.459,9.964,4.476,3.469,1.043,6.85,2.364,10.3,3.294s6.914,1.977,10.452,2.761c3.427.762,7.061.946,10.678,1.549,3.42.569,6.91,1.891,10.587,2.3,3.42.375,7.22-2.9,10.935-2.686,3.423.2,6.877,3.4,10.6,3.444,3.427.044,6.979-2.311,10.705-2.409,3.433-.087,7.083,2.074,10.8,1.858,3.575-.208,6.856-2.584,10.126-2.864,3.572-.305,6.866-1.56,10.125-1.919,3.564-.394,7.039.176,10.3-.239,3.542-.448,6.976-.448,10.255-.867,3.509-.448,7.05.745,10.37.4,3.464-.361,6.788-1.024,10.174-1.195,3.406-.171,6.725.89,10.187.993,3.334.1,6.579.356,10.092.783,3.265.4,6.583.415,10.1,1.157,3.2.673,6.309,2.006,9.794,3.011,3.58,1.033,7.743-.347,11.145.893,3.511,1.28,6.283,4.468,9.6,5.94,3.43,1.519,7.448,1.429,10.675,3.119,3.339,1.75,6.265,4.243,9.386,6.135,3.242,1.97,5.975,4.649,8.98,6.732,3.14,2.177,7.12,2.884,10,5.136,3.038,2.38,6,4.783,8.741,7.191,2.936,2.573,5.008,6.055,7.605,8.591,2.841,2.774,4.77,6.252,7.2,8.892,2.764,3,5.351,5.711,7.588,8.408,2.755,3.323,6.173,5.38,8.125,8.019,3.4,4.6,4.925,8.5,5.857,9.973,1.991,3.151,5.168,5.453,6.936,8.632,1.814,3.269,3.491,6.648,5.081,9.938,1.63,3.377.516,8.1,1.921,11.493,1.44,3.475,4.482,6.132,5.7,9.607,1.246,3.559,3.634,6.7,4.658,10.244,1.049,3.63-.439,7.991.395,11.6.855,3.69,1.238,7.367,1.883,11.016.66,3.737,4.305,6.912,4.765,10.591.471,3.773-2.331,7.885-2.051,11.58.288,3.8,1.861,7.425,1.968,11.125.111,3.82-.3,7.566-.361,11.262-.062,3.833-.437,7.547-.656,11.224-.228,3.84-1.233,7.465-1.6,11.107-.39,3.848-1.065,7.472-1.578,11.072-.551,3.855.709,7.876.062,11.414-.712,3.88-1.157,7.643-1.931,11.093-.884,3.937-3.263,7.144-4.15,10.455-1.1,4.117-1.165,8.035-2.123,11.062-1.833,5.788-2.389,9.858-2.82,10.934-1.453,3.632-3.015,7.21-4.61,10.652-1.638,3.538-3.425,6.988-5.2,10.327-1.821,3.431-3.072,7.262-5.016,10.49-2,3.314-6.239,4.919-8.348,8.026-2.164,3.189-4.458,6.123-6.722,9.1-2.324,3.056-4.59,6.011-7,8.851-2.475,2.917-3.036,7.772-5.581,10.469-2.616,2.775-5.263,5.572-7.927,8.122-2.75,2.632-7.746,2.306-10.521,4.71-2.873,2.488-4.1,7.14-6.971,9.392-2.988,2.346-7.112,2.786-10.062,4.89-3.1,2.207-6.107,4.286-9.122,6.238-3.2,2.071-6.12,4.366-9.187,6.168-3.315,1.945-5.948,4.963-9.046,6.612-3.441,1.828-6.3,4.6-9.392,6.088-3.608,1.737-8,.668-11.017,1.989-3.98,1.737-6.937,4.379-9.643,5.483-3.284,1.341-7.055,1.183-10.519,2.236-3.376,1.027-6.879,1.322-10.409,2.1-3.438.75-6.882,1.139-10.451,1.664-3.477.511-6.753,3.149-10.339,3.459-3.5.3-7.112-.832-10.7-.707-3.515.122-7.058,2.734-10.648,2.7-3.522-.033-7.125-.288-10.708-.461-3.522-.169-7.08-.923-10.65-1.216-3.522-.289-6.838-3.248-10.4-3.646-3.519-.394-7.41,2.477-10.952,1.987-3.512-.485-7.018-1.375-10.545-1.943-3.507-.567-6.733-3.157-10.244-3.8s-7.2-.131-10.7-.832-6.774-2.639-10.257-3.393-6.749-2.643-10.218-3.44c-3.49-.8-6.942-1.648-10.4-2.484-3.488-.844-7.172-.64-10.613-1.509-3.488-.879-6.922-1.868-10.352-2.762-3.491-.907-6.953-1.778-10.37-2.686-3.494-.928-7.306-.3-10.711-1.218-3.5-.944-6.434-4.1-9.828-5.022-3.513-.951-7.123-1.209-10.508-2.118-3.528-.947-7.306-.457-10.679-1.341-3.554-.933-6.469-4.342-9.831-5.186-3.59-.9-7.126-1.584-10.472-2.36-3.64-.844-7.334-.694-10.656-1.359-3.723-.745-7.165-2.224-10.448-2.7-3.865-.563-7.552-1.228-10.743-1.357-3.507-.141-7.125,3.691-10.653,3.623-3.509-.066-7-.808-10.525-.815-3.509-.007-7.021-.621-10.551-.583-3.509.037-7,1.446-10.529,1.514-3.509.07-7.089-3.18-10.619-3.093-3.509.085-7.033,0-10.563.091-3.507.091-6.952,3.649-10.48,3.733-3.509.085-7.036.2-10.564.265-3.509.065-7.062-2.261-10.59-2.228-3.509.033-7.021-.372-10.55-.382-3.509-.01-7.052,2.163-10.58,2.1-3.507-.063-6.942-3.508-10.47-3.637-3.506-.127-7.057,1.123-10.582.921-3.5-.2-7.037.044-10.561-.244-3.5-.284-7.083.26-10.6-.12-3.488-.377-6.853-2.1-10.359-2.587-3.476-.476-7.2.71-10.692.119-3.459-.584-6.511-3.819-9.99-4.523-3.441-.7-7.146,0-10.6-.823-3.415-.815-7.021-.939-10.452-1.888-3.388-.937-6.191-4.218-9.595-5.294-3.354-1.059-6.992-1.12-10.36-2.324-3.317-1.185-6.076-3.66-9.3-5.34-3.14-1.64-6.526-2.671-9.554-4.726-2.956-2-5.586-4.466-8.418-6.816-2.773-2.3-6.325-3.63-8.963-6.216-2.6-2.545-5.149-5.23-7.6-8.005-2.428-2.749-5.15-5.3-7.419-8.234s-2.617-7.451-4.708-10.514c-2.1-3.082-6.717-4.291-8.63-7.47-1.941-3.224-1.727-7.866-3.456-11.144-1.771-3.36-3.481-6.652-5.013-10.017-1.588-3.492-5.085-6.02-6.395-9.466-1.381-3.63-1.276-7.848-2.4-11.442-1.159-3.707-1.912-7.484-2.8-11.165-.914-3.772-2.774-7.3-3.417-11.06-.651-3.815.811-7.932.432-11.747-.38-3.84-.825-7.59-.937-11.442s.139-7.618.288-11.486c.146-3.826-2.111-7.885-1.717-11.749.387-3.791,1.1-7.664,1.716-11.507.6-3.749,2.581-7.285,3.394-11.093.792-3.7,2.324-7.236,3.31-11.006.955-3.651,2.737-7.042,3.868-10.765,1.094-3.6,1.35-7.543,2.6-11.22,1.214-3.559,1.9-7.4,3.258-11.034,1.313-3.517,1.761-7.51,3.206-11.109,1.4-3.478,3.36-6.777,4.877-10.341,1.466-3.447,3.213-6.833,4.789-10.364,1.526-3.423,2.344-7.3,3.969-10.805C1366.65,375.393,1368.721,372.185,1370.387,368.7Z" fill="#ffe8b8"/></g></svg>