<svg xmlns="http://www.w3.org/2000/svg" width="232.076" height="149.503" viewBox="0 0 232.076 149.503"><g transform="translate(-1455.649 0.781)"><path d="M1466.588,41.126c.594-.805.444-2.184,1.074-2.964s1.3-1.546,1.964-2.3,2.035-.847,2.729-1.572,1.085-1.727,1.808-2.424,1.458-1.365,2.207-2.035,1.774-.989,2.548-1.63,1.323-1.528,2.119-2.142,1.741-.995,2.557-1.582,1.406-1.469,2.241-2.029,1.432-1.477,2.285-2.011,1.962-.631,2.829-1.139,1.488-1.439,2.37-1.924,1.9-.7,2.8-1.159,1.921-.625,2.827-1.062,1.8-.873,2.712-1.286,1.576-1.4,2.5-1.788,2.225.156,3.159-.214,1.742-1.021,2.684-1.371,1.676-1.257,2.625-1.587,1.988-.381,2.944-.691,1.985-.356,2.946-.648,1.791-1.009,2.757-1.281,2.134.227,3.105-.028,1.919-.541,2.895-.779,1.752-1.291,2.732-1.512,2.146.455,3.129.251,1.792-1.244,2.777-1.433,2.1.331,3.084.159,1.838-1.157,2.829-1.314,2.118.616,3.11.475,1.942-.556,2.936-.683,1.983-.267,2.979-.379,2.022.122,3.02.024,1.952-.615,2.95-.7,1.981-.389,2.98-.459,1.99-.342,2.99-.4,2.035.566,3.036.524,2-.175,3-.2,2-.216,3-.23,2-.36,3.006-.36,2.007.2,3.008.217,2.015-.269,3.015-.242,2,.36,3,.4,1.98.562,2.979.616,2.036-.455,3.034-.387,2.026-.112,3.021-.031,1.912,1.148,2.906,1.243,2.071-.533,3.063-.423,1.927.794,2.917.918,2.057-.244,3.045-.1,1.888.941,2.873,1.1,2.081-.293,3.064-.124,1.931.618,2.911.8,2.095-.217,3.071-.015,1.767,1.347,2.739,1.565,2.09-.122,3.058.114,1.967.436,2.93.689,1.92.612,2.877.884,1.921.6,2.871.893c.965.3,1.979.423,2.922.735.959.317,1.708,1.214,2.643,1.547.953.34,2.128.048,3.054.4.944.363,1.764,1.022,2.68,1.4.935.388,1.894.7,2.8,1.1.924.415,1.851.806,2.74,1.239.912.444,1.651,1.2,2.526,1.659.9.474,1.825.854,2.681,1.348.88.508,2.046.531,2.88,1.058.859.543,1.562,1.323,2.371,1.887.835.582,1.2,1.76,1.981,2.364.8.624,1.952.784,2.7,1.431.768.668,1.5,1.358,2.2,2.05.724.716,1.449,1.418,2.1,2.159s1.04,1.736,1.667,2.5,1.147,1.63,1.751,2.407c.615.793,1.121,1.641,1.7,2.437.591.811,1.606,1.3,2.16,2.119.564.83,1.051,1.7,1.577,2.534.536.849.99,1.735,1.487,2.585.506.867.632,1.924,1.1,2.792.474.884,1.524,1.458,1.956,2.344.439.9.46,1.987.857,2.889.4.918.6,1.9.963,2.814.365.934.845,1.8,1.164,2.734.324.948,1.285,1.689,1.563,2.636s-.05,2.085.184,3.044.83,1.861,1.018,2.83-.031,2.028.111,3.006.885,1.908.978,2.892-.394,2.032-.351,3.021-.232,1.982-.239,2.973.48,2,.422,2.989.054,2.012-.056,3-1.01,1.864-1.171,2.844-.025,2-.237,2.973-.238,1.985-.5,2.945-.971,1.774-1.281,2.72.105,2.146-.251,3.076-1.146,1.685-1.548,2.6-.543,1.944-.989,2.836-1.179,1.627-1.666,2.5-.565,1.982-1.091,2.83-1.265,1.561-1.829,2.386-1.369,1.463-1.968,2.263-.926,1.8-1.557,2.575-1.354,1.465-2.017,2.213-1.123,1.678-1.815,2.4-1.789,1.027-2.508,1.723-1.158,1.671-1.9,2.341-1.562,1.239-2.328,1.883-1.665,1.1-2.453,1.718-1.646,1.108-2.454,1.7-1.827.833-2.653,1.4-1.5,1.337-2.358,1.871-1.851.778-2.729,1.277-1.555,1.305-2.451,1.771-1.556,1.379-2.468,1.812-1.875.741-2.8,1.144-2.143.054-3.081.428-1.719,1.085-2.668,1.43-1.82.855-2.778,1.174-1.963.43-2.929.723-1.826.9-2.8,1.165-2.1-.114-3.076.132-1.864.791-2.847,1.014-2.012.146-3,.348-1.921.583-2.913.765-1.948.476-2.943.638-2.023,0-3.021.141-1.969.346-2.969.472-1.951.555-2.952.663-2.032-.2-3.035-.11-1.941.831-2.945.907-2.046-.542-3.05-.481-1.958.949-2.962.995-2.014-.032-3.019,0-2.012-.094-3.017-.076-2.01-.265-3.015-.261-2.006.122-3.01.113-2.018.485-3.022.463-2-.271-3.009-.306-1.993-.428-3-.476-1.984-.439-2.986-.5-2.034.358-3.035.286-2.023.076-3.022-.008-1.967-.568-2.966-.663-1.962-.538-2.958-.645-2.071.435-3.066.316-2.01-.149-3-.281-1.9-.9-2.9-1.046-2.091.385-3.081.231-1.883-.96-2.87-1.126-2.049.044-3.034-.133-2.052.01-3.034-.18-1.959-.492-2.938-.694-1.806-1.182-2.782-1.4-2.158.419-3.131.193-1.782-1.212-2.75-1.45-2.027-.195-2.992-.446-1.939-.544-2.9-.809-1.852-.842-2.808-1.121c-.972-.283-2.028-.242-2.979-.535-.968-.3-1.882-.73-2.826-1.038s-1.9-.614-2.834-.957-1.793-.884-2.715-1.26-1.794-.856-2.7-1.264-2.074-.28-2.968-.722-1.889-.723-2.765-1.2-1.545-1.344-2.4-1.848-1.832-.842-2.673-1.376-1.338-1.594-2.159-2.159-2.032-.591-2.832-1.185-1.73-1.054-2.507-1.677-.965-1.967-1.719-2.618-1.813-.962-2.542-1.64-1.235-1.593-1.938-2.3-1.527-1.3-2.2-2.027-1.4-1.428-2.048-2.185-1.451-1.4-2.068-2.182-.973-1.774-1.558-2.58-1.284-1.541-1.836-2.37-.766-1.875-1.283-2.726-1.475-1.453-1.955-2.325-.506-1.988-.947-2.881-1.446-1.532-1.847-2.444-.707-1.885-1.064-2.815-.107-2.081-.42-3.027-.557-1.9-.823-2.859-1.237-1.748-1.454-2.721.15-2.067-.016-3.05-.771-1.907-.884-2.9-.474-1.983-.532-2.979.159-2.022.157-3.021.351-1.991.407-2.989.43-1.952.544-2.946-.252-2.043-.079-3.03-.021-2.059.21-3.035.875-1.847,1.164-2.809.661-1.884,1.006-2.828.932-1.767,1.332-2.69.422-2,.875-2.9c.445-.884,1.055-1.7,1.557-2.575.493-.858.947-1.761,1.5-2.607C1464.867,42.368,1465.995,41.943,1466.588,41.126Z" transform="translate(0 0)" fill="#ffe8b8"/></g></svg>